<svg width="512" height="512" viewBox="0 0 512 512" fill="none" xmlns="http://www.w3.org/2000/svg">
<path d="M294.176 256L464.09 86.1047C474.637 75.5574 474.637 58.4569 464.09 47.9105C453.542 37.3632 436.442 37.3632 425.895 47.9105L256 217.823L86.1047 47.9105C75.5574 37.3632 58.4569 37.3632 47.9105 47.9105C37.364 58.4578 37.3632 75.5582 47.9105 86.1047L217.823 256L47.9105 425.895C37.3632 436.443 37.3632 453.543 47.9105 464.09C58.4578 474.636 75.5582 474.637 86.1047 464.09L256 294.176L425.894 464.09C436.442 474.637 453.542 474.637 464.089 464.09C474.636 453.542 474.636 436.442 464.089 425.895L294.176 256Z" fill="white"/>
</svg>
